<svg aria-hidden="true" style="position: absolute; width: 0; height: 0; overflow: hidden;" version="1.1" xmlns="http://www.w3.org/2000/svg" xmlns:xlink="http://www.w3.org/1999/xlink">
<defs>
<symbol id="icon-add-user" viewBox="0 0 20 20">
<path d="M15.989 19.129c0.011-2.129-2.186-3.389-4.317-4.307-2.123-0.914-2.801-1.684-2.801-3.334 0-0.989 0.648-0.667 0.932-2.481 0.12-0.752 0.692-0.012 0.802-1.729 0-0.684-0.313-0.854-0.313-0.854s0.159-1.013 0.221-1.793c0.064-0.817-0.398-2.56-2.301-3.095-0.332-0.341-0.557-0.882 0.467-1.424-2.24-0.104-2.761 1.068-3.954 1.93-1.015 0.756-1.289 1.953-1.24 2.59 0.065 0.78 0.223 1.793 0.223 1.793s-0.314 0.17-0.314 0.854c0.11 1.718 0.684 0.977 0.803 1.729 0.284 1.814 0.933 1.492 0.933 2.481 0 1.65-0.212 2.21-2.336 3.124-2.131 0.917-2.794 2.387-2.783 4.516 0.003 0.637-0.011 0.871-0.011 0.871h16c0 0-0.014-0.234-0.011-0.871zM17 10v-3h-2v3h-3v2h3v3h2v-3h3v-2h-3z"></path>
</symbol>
<symbol id="icon-box" viewBox="0 0 20 20">
<path d="M18.399 2h-16.799c-0.332 0-0.6 0.267-0.6 0.6v2.4h18v-2.4c0-0.333-0.27-0.6-0.601-0.6zM2 16.6c0 0.77 0.629 1.4 1.399 1.4h13.2c0.77 0 1.4-0.631 1.4-1.4v-10.6h-15.999v10.6zM7 8h6v2h-6v-2z"></path>
</symbol>
<symbol id="icon-circle-with-plus" viewBox="0 0 20 20">
<path d="M10 1.6c-4.639 0-8.4 3.761-8.4 8.4s3.761 8.4 8.4 8.4 8.4-3.761 8.4-8.4c0-4.639-3.761-8.4-8.4-8.4zM15 11h-4v4h-2v-4h-4v-2h4v-4h2v4h4v2z"></path>
</symbol>
<symbol id="icon-grid" viewBox="0 0 20 20">
<path d="M8 4h-3c-0.553 0-1 0.447-1 1v3c0 0.552 0.447 1 1 1h3c0.553 0 1-0.448 1-1v-3c0-0.552-0.447-1-1-1zM15 4h-3c-0.553 0-1 0.447-1 1v3c0 0.552 0.447 1 1 1h3c0.553 0 1-0.448 1-1v-3c0-0.552-0.447-1-1-1zM8 11h-3c-0.553 0-1 0.447-1 1v3c0 0.552 0.447 1 1 1h3c0.553 0 1-0.448 1-1v-3c0-0.552-0.447-1-1-1zM15 11h-3c-0.553 0-1 0.447-1 1v3c0 0.552 0.447 1 1 1h3c0.553 0 1-0.448 1-1v-3c0-0.552-0.447-1-1-1z"></path>
</symbol>
<symbol id="icon-heart-outlined" viewBox="0 0 20 20">
<path d="M17.19 4.156c-1.672-1.535-4.383-1.535-6.055 0l-1.135 1.041-1.136-1.041c-1.672-1.535-4.382-1.535-6.054 0-1.881 1.726-1.881 4.519 0 6.245l7.19 6.599 7.19-6.599c1.88-1.726 1.88-4.52 0-6.245zM16.124 9.375l-6.124 5.715-6.125-5.715c-0.617-0.567-0.856-1.307-0.856-2.094s0.138-1.433 0.756-1.999c0.545-0.501 1.278-0.777 2.063-0.777s1.517 0.476 2.062 0.978l2.1 1.825 2.099-1.826c0.546-0.502 1.278-0.978 2.063-0.978s1.518 0.276 2.063 0.777c0.618 0.566 0.755 1.212 0.755 1.999s-0.238 1.528-0.856 2.095z"></path>
</symbol>
<symbol id="icon-home" viewBox="0 0 20 20">
<path d="M18.672 11h-1.672v6c0 0.445-0.194 1-1 1h-4v-6h-4v6h-4c-0.806 0-1-0.555-1-1v-6h-1.672c-0.598 0-0.47-0.324-0.060-0.748l8.024-8.032c0.195-0.202 0.451-0.302 0.708-0.312 0.257 0.010 0.513 0.109 0.708 0.312l8.023 8.031c0.411 0.425 0.539 0.749-0.059 0.749z"></path>
</symbol>
<symbol id="icon-info-with-circle" viewBox="0 0 20 20">
<path d="M10 0.4c-5.303 0-9.601 4.298-9.601 9.6 0 5.303 4.298 9.601 9.601 9.601 5.301 0 9.6-4.298 9.6-9.601s-4.299-9.6-9.6-9.6zM10.896 3.866c0.936 0 1.211 0.543 1.211 1.164 0 0.775-0.62 1.492-1.679 1.492-0.886 0-1.308-0.445-1.282-1.182 0-0.621 0.519-1.474 1.75-1.474zM8.498 15.75c-0.64 0-1.107-0.389-0.66-2.094l0.733-3.025c0.127-0.484 0.148-0.678 0-0.678-0.191 0-1.022 0.334-1.512 0.664l-0.319-0.523c1.555-1.299 3.343-2.061 4.108-2.061 0.64 0 0.746 0.756 0.427 1.92l-0.84 3.18c-0.149 0.562-0.085 0.756 0.064 0.756 0.192 0 0.82-0.232 1.438-0.719l0.362 0.486c-1.513 1.512-3.162 2.094-3.801 2.094z"></path>
</symbol>
<symbol id="icon-key" viewBox="0 0 20 20">
<path d="M17.691 4.725c-0.503-2.977-3.22-4.967-6.069-4.441s-5.256 2.816-4.753 5.795c0.107 0.641 0.408 1.644 0.763 2.365l-5.175 7.723c-0.191 0.285-0.299 0.799-0.242 1.141l0.333 1.971c0.058 0.342 0.372 0.572 0.7 0.514l1.516-0.281c0.328-0.059 0.744-0.348 0.924-0.639l2.047-3.311 0.018-0.022 1.386-0.256 2.39-3.879c0.785 0.139 1.912 0.092 2.578-0.031 2.848-0.526 4.087-3.67 3.584-6.649zM15.166 6.252c-0.784 1.17-1.584 0.346-2.703-0.475-1.119-0.818-2.135-1.322-1.352-2.492s2.326-1.455 3.447-0.635c1.12 0.819 1.391 2.432 0.608 3.602z"></path>
</symbol>
<symbol id="icon-log-out" viewBox="0 0 20 20">
<path d="M19 10l-6-5v3h-7v4h7v3l6-5zM3 3h8v-2h-8c-1.1 0-2 0.9-2 2v14c0 1.1 0.9 2 2 2h8v-2h-8v-14z"></path>
</symbol>
<symbol id="icon-login" viewBox="0 0 20 20">
<path d="M14 10l-6-5v3h-7v4h7v3l6-5zM17 17h-8v2h8c1.1 0 2-0.9 2-2v-14c0-1.1-0.9-2-2-2h-8v2h8v14z"></path>
</symbol>
<symbol id="icon-magnifying-glass" viewBox="0 0 20 20">
<path d="M17.545 15.467l-3.779-3.779c0.57-0.935 0.898-2.035 0.898-3.21 0-3.417-2.961-6.377-6.378-6.377s-6.186 2.769-6.186 6.186c0 3.416 2.961 6.377 6.377 6.377 1.137 0 2.2-0.309 3.115-0.844l3.799 3.801c0.372 0.371 0.975 0.371 1.346 0l0.943-0.943c0.371-0.371 0.236-0.84-0.135-1.211zM4.004 8.287c0-2.366 1.917-4.283 4.282-4.283s4.474 2.107 4.474 4.474c0 2.365-1.918 4.283-4.283 4.283s-4.473-2.109-4.473-4.474z"></path>
</symbol>
<symbol id="icon-mail" viewBox="0 0 20 20">
<path d="M1.574 5.286c0.488 0.262 7.248 3.894 7.5 4.029s0.578 0.199 0.906 0.199c0.328 0 0.654-0.064 0.906-0.199s7.012-3.767 7.5-4.029c0.489-0.263 0.951-1.286 0.054-1.286h-16.919c-0.897 0-0.435 1.023 0.053 1.286zM18.613 7.489c-0.555 0.289-7.387 3.849-7.727 4.027s-0.578 0.199-0.906 0.199-0.566-0.021-0.906-0.199-7.133-3.739-7.688-4.028c-0.39-0.204-0.386 0.035-0.386 0.219s0 7.293 0 7.293c0 0.42 0.566 1 1 1h16c0.434 0 1-0.58 1-1 0 0 0-7.108 0-7.292s0.004-0.423-0.387-0.219z"></path>
</symbol>
<symbol id="icon-new-message" viewBox="0 0 20 20">
<path d="M18.174 1.826c-1.102-1.102-2.082-0.777-2.082-0.777l-8.639 8.632-1.453 4.319 4.317-1.454 8.634-8.638c0 0 0.324-0.98-0.777-2.082zM10.605 11.605l-0.471 0.47-1.473 0.5c-0.104-0.24-0.234-0.477-0.498-0.74s-0.5-0.394-0.74-0.498l0.5-1.473 0.471-0.47c0 0 0.776-0.089 1.537 0.673 0.762 0.761 0.674 1.538 0.674 1.538zM16 17h-13v-13h5l2-2h-7c-1.1 0-2 0.9-2 2v13c0 1.1 0.9 2 2 2h13c1.1 0 2-0.9 2-2v-7l-2 2v5z"></path>
</symbol>
<symbol id="icon-phone" viewBox="0 0 20 20">
<path d="M11.229 11.229c-1.583 1.582-3.417 3.096-4.142 2.371-1.037-1.037-1.677-1.941-3.965-0.102-2.287 1.838-0.53 3.064 0.475 4.068 1.16 1.16 5.484 0.062 9.758-4.211 4.273-4.274 5.368-8.598 4.207-9.758-1.005-1.006-2.225-2.762-4.063-0.475s-0.936 2.927 0.103 3.965c0.722 0.725-0.791 2.559-2.373 4.142z"></path>
</symbol>
<symbol id="icon-user" viewBox="0 0 20 20">
<path d="M7.725 2.146c-1.016 0.756-1.289 1.953-1.239 2.59 0.064 0.779 0.222 1.793 0.222 1.793s-0.313 0.17-0.313 0.854c0.109 1.717 0.683 0.976 0.801 1.729 0.284 1.814 0.933 1.491 0.933 2.481 0 1.649-0.68 2.42-2.803 3.334-2.13 0.918-4.326 2.073-4.326 4.073v1h18v-1c0-2-2.197-3.155-4.328-4.072-2.123-0.914-2.801-1.684-2.801-3.334 0-0.99 0.647-0.667 0.932-2.481 0.119-0.753 0.692-0.012 0.803-1.729 0-0.684-0.314-0.854-0.314-0.854s0.158-1.014 0.221-1.793c0.065-0.817-0.398-2.561-2.3-3.096-0.333-0.34-0.558-0.881 0.466-1.424-2.24-0.105-2.761 1.067-3.954 1.929z"></path>
</symbol>
</defs>
</svg>
